<?xml version="1.0" standalone="no"?>
<!DOCTYPE svg PUBLIC "-//W3C//DTD SVG 20010904//EN"
 "http://www.w3.org/TR/2001/REC-SVG-20010904/DTD/svg10.dtd">
<svg version="1.0" xmlns="http://www.w3.org/2000/svg"
 width="4000.000000pt" height="4000.000000pt" viewBox="0 0 4000.000000 4000.000000"
 preserveAspectRatio="xMidYMid meet">
<metadata>
Created by potrace 1.14, written by Peter Selinger 2001-2017
</metadata>
<g transform="translate(0.000000,4000.000000) scale(0.100000,-0.100000)"
fill="#000000" stroke="none">
<path d="M20085 31312 c-362 -200 -1427 -1100 -3755 -3171 -555 -494 -1015
-905 -2830 -2531 -1741 -1560 -2875 -2547 -3318 -2889 -45 -35 -80 -66 -78
-68 6 -6 456 13 801 33 167 10 350 15 480 12 l209 -5 156 131 c546 457 2643
2289 5955 5199 325 285 604 531 620 546 111 100 1799 1587 1804 1589 4 1 264
-224 577 -500 2701 -2384 6196 -5446 7269 -6369 468 -403 564 -481 583 -475
59 17 291 16 627 -3 385 -22 838 -42 842 -37 2 1 -48 43 -110 92 -547 433
-1547 1310 -5042 4420 -3089 2749 -4282 3785 -4614 4007 -81 55 -106 58 -176
19z"/>
<path d="M19795 27489 c-152 -13 -296 -68 -461 -177 -517 -343 -932 -1002
-1005 -1595 -16 -137 -7 -384 21 -521 181 -909 999 -1508 2010 -1473 486 17
877 173 1194 477 666 638 728 1783 137 2540 -351 450 -875 705 -1536 749 -175
12 -225 12 -360 0z m171 -1007 l1 -669 -240 -6 c-132 -4 -419 -7 -638 -7
l-397 0 14 63 c38 169 150 421 262 592 169 259 403 484 620 597 114 60 179 80
282 88 47 4 87 8 90 9 3 0 6 -300 6 -667z m533 611 c212 -46 402 -126 576
-240 127 -85 317 -273 399 -395 110 -167 194 -363 235 -551 l18 -82 -687 -1
-687 -2 -6 447 c-7 411 -18 714 -32 818 l-6 42 38 -6 c21 -3 89 -16 152 -30z
m1241 -1703 c-63 -620 -440 -1094 -995 -1255 -92 -26 -212 -49 -321 -60 l-61
-6 -6 182 c-4 100 -7 408 -7 684 l0 502 468 6 c435 6 714 18 864 36 35 4 64 7
65 6 1 0 -2 -43 -7 -95z m-1757 -222 c11 -453 9 -1078 -4 -1078 -7 0 -64 12
-128 26 -302 67 -547 200 -756 409 -239 238 -372 512 -419 862 l-6 42 112 4
c62 1 356 4 654 5 l541 2 6 -272z"/>
<path d="M16692 20221 c-439 -243 -2924 -2374 -3970 -3406 l-243 -240 -12
-195 c-16 -261 -15 -3479 1 -4625 41 -2889 90 -4523 143 -4728 l10 -38 242 3
c206 3 247 6 273 20 17 10 34 25 38 34 51 133 100 3479 112 7569 l5 1950 27
25 c15 14 117 102 227 195 222 188 748 640 1460 1255 594 513 1346 1158 1538
1319 l147 123 117 -98 c315 -265 840 -724 1958 -1714 358 -317 760 -672 895
-789 135 -118 266 -233 291 -255 l46 -41 -8 -125 c-16 -231 -22 -2326 -10
-3495 33 -3262 97 -5638 160 -5871 l7 -29 215 0 c222 0 252 5 287 48 28 33 53
619 82 1957 42 1910 90 5606 90 6942 0 468 3 597 13 601 6 2 10 6 7 9 -3 2
-39 30 -80 63 -268 211 -771 660 -2090 1865 -1052 961 -1298 1184 -1590 1440
-176 154 -309 260 -326 260 -5 0 -33 -13 -62 -29z"/>
<path d="M22266 19648 c-16 -214 -59 -1961 -101 -4073 -13 -679 -20 -1034 -41
-2226 l-7 -377 114 -6 c63 -3 632 -11 1264 -17 1685 -16 2588 5 2890 67 39 8
75 20 82 27 30 30 63 825 84 2052 13 748 6 2780 -10 3270 -15 429 -29 721 -47
945 -14 185 -41 410 -49 419 -2 2 -114 -2 -247 -8 -553 -27 -812 -32 -1803
-38 -1138 -6 -1795 7 -2077 43 l-46 6 -6 -84z m639 -278 c173 -12 796 -30
1028 -30 l157 0 0 -835 0 -835 -742 0 -741 0 7 338 c9 438 24 1003 32 1216 l6
168 52 -6 c28 -3 119 -10 201 -16z m3164 -57 c32 -234 71 -1038 71 -1490 l0
-153 -815 0 -815 0 0 834 0 833 61 7 c34 3 145 6 247 6 196 0 736 16 962 29
74 5 167 9 206 10 l72 1 11 -77z m81 -2895 c0 -1390 -38 -3003 -72 -3045 -24
-30 -221 -56 -568 -74 -271 -15 -1600 -18 -2414 -5 l-568 8 6 377 c4 207 11
639 16 961 25 1529 41 2346 46 2467 l6 133 1547 3 c850 1 1648 3 1774 5 l227
2 0 -832z"/>
<path d="M18230 11876 c-231 -62 -293 -358 -97 -458 63 -32 162 -36 215 -9 83
42 129 145 120 265 -9 104 -64 183 -146 206 -43 12 -35 12 -92 -4z"/>
<path d="M16770 8344 c-1471 -13 -2497 -36 -2517 -57 -16 -16 -35 -230 -27
-305 7 -67 21 -109 39 -115 7 -3 1040 -6 2296 -7 2171 -2 2439 1 2479 25 14 8
13 236 -1 310 -6 33 -19 76 -30 96 -15 30 -25 38 -56 43 -43 7 -1697 14 -2183
10z"/>
</g>
</svg>
